<svg width="140" height="23" viewBox="0 0 140 23" fill="none" xmlns="http://www.w3.org/2000/svg">
<circle cx="8.5" cy="11" r="8" stroke="#333333"/>
<path d="M25.84 17.58C26.5867 17.58 27.2 17.46 27.68 17.22C28.1733 16.9667 28.42 16.5467 28.42 15.96C28.42 15.68 28.3733 15.44 28.28 15.24C28.2 15.04 28.06 14.86 27.86 14.7C27.66 14.54 27.3933 14.3867 27.06 14.24C26.74 14.0933 26.34 13.92 25.86 13.72C25.4733 13.56 25.1067 13.4 24.76 13.24C24.4133 13.0667 24.1067 12.8733 23.84 12.66C23.5733 12.4333 23.36 12.1667 23.2 11.86C23.04 11.5533 22.96 11.18 22.96 10.74C22.96 9.9 23.2733 9.22 23.9 8.7C24.54 8.18 25.4133 7.92 26.52 7.92C27.2267 7.92 27.8067 7.98 28.26 8.1C28.7267 8.22 29.0533 8.32667 29.24 8.42L28.94 9.58C28.78 9.5 28.5067 9.39333 28.12 9.26C27.7467 9.12667 27.1933 9.06 26.46 9.06C26.1667 9.06 25.8867 9.09333 25.62 9.16C25.3667 9.21333 25.14 9.30667 24.94 9.44C24.74 9.56 24.58 9.72 24.46 9.92C24.34 10.1067 24.28 10.34 24.28 10.62C24.28 10.9 24.3333 11.14 24.44 11.34C24.5467 11.54 24.7 11.72 24.9 11.88C25.1133 12.0267 25.3667 12.1667 25.66 12.3C25.9667 12.4333 26.3133 12.58 26.7 12.74C27.1 12.9 27.48 13.0667 27.84 13.24C28.2133 13.4 28.54 13.6 28.82 13.84C29.1 14.0667 29.3267 14.3467 29.5 14.68C29.6733 15 29.76 15.4067 29.76 15.9C29.76 16.8333 29.4067 17.54 28.7 18.02C28.0067 18.5 27.0533 18.74 25.84 18.74C24.9333 18.74 24.24 18.66 23.76 18.5C23.28 18.3533 22.96 18.24 22.8 18.16L23.14 16.98C23.18 17.0067 23.2667 17.0533 23.4 17.12C23.5333 17.1733 23.7133 17.24 23.94 17.32C24.1667 17.3867 24.4333 17.4467 24.74 17.5C25.06 17.5533 25.4267 17.58 25.84 17.58ZM33.5747 18.5H32.2747V8.16H33.5747V18.5ZM33.8747 5.04C33.8747 5.34667 33.7814 5.59333 33.5947 5.78C33.408 5.95333 33.1814 6.04 32.9147 6.04C32.648 6.04 32.4214 5.95333 32.2347 5.78C32.048 5.59333 31.9547 5.34667 31.9547 5.04C31.9547 4.73333 32.048 4.49333 32.2347 4.32C32.4214 4.13333 32.648 4.04 32.9147 4.04C33.1814 4.04 33.408 4.13333 33.5947 4.32C33.7814 4.49333 33.8747 4.73333 33.8747 5.04ZM37.0208 8.52C37.4074 8.41333 37.9074 8.29333 38.5208 8.16C39.1474 8.02667 39.9541 7.96 40.9408 7.96C42.2474 7.96 43.1941 8.34 43.7808 9.1C43.8474 9.04667 43.9741 8.96 44.1608 8.84C44.3608 8.70667 44.6074 8.57333 44.9008 8.44C45.1941 8.30667 45.5341 8.19333 45.9208 8.1C46.3208 8.00667 46.7608 7.96 47.2408 7.96C48.0274 7.96 48.6608 8.08 49.1408 8.32C49.6341 8.54667 50.0141 8.87333 50.2808 9.3C50.5474 9.71333 50.7274 10.2133 50.8208 10.8C50.9141 11.3867 50.9608 12.0267 50.9608 12.72V18.5H49.6608V13.14C49.6608 12.46 49.6274 11.8733 49.5608 11.38C49.5074 10.8733 49.3874 10.46 49.2008 10.14C49.0274 9.80667 48.7741 9.56 48.4408 9.4C48.1074 9.22667 47.6741 9.14 47.1408 9.14C46.7408 9.14 46.3741 9.18 46.0408 9.26C45.7208 9.32667 45.4408 9.41333 45.2008 9.52C44.9608 9.62667 44.7608 9.73333 44.6008 9.84C44.4541 9.94667 44.3474 10.0267 44.2808 10.08C44.4008 10.4267 44.4874 10.82 44.5408 11.26C44.6074 11.6867 44.6408 12.14 44.6408 12.62V18.5H43.3408V13.14C43.3408 12.46 43.3074 11.8733 43.2408 11.38C43.1874 10.8733 43.0674 10.46 42.8808 10.14C42.6941 9.80667 42.4274 9.56 42.0808 9.4C41.7474 9.22667 41.3008 9.14 40.7408 9.14C40.1141 9.14 39.5808 9.17333 39.1408 9.24C38.7141 9.30667 38.4408 9.36667 38.3208 9.42V18.5H37.0208V8.52ZM55.5864 16.64C55.7064 16.7333 55.8531 16.8333 56.0264 16.94C56.2131 17.0467 56.4264 17.1467 56.6664 17.24C56.9064 17.3333 57.1664 17.4133 57.4464 17.48C57.7264 17.5333 58.0197 17.56 58.3264 17.56C58.9664 17.56 59.4997 17.4533 59.9264 17.24C60.3664 17.0133 60.7197 16.7133 60.9864 16.34C61.2531 15.9533 61.4464 15.5067 61.5664 15C61.6864 14.48 61.7464 13.9333 61.7464 13.36C61.7464 12 61.4064 10.96 60.7264 10.24C60.0464 9.50667 59.1464 9.14 58.0264 9.14C57.3864 9.14 56.8664 9.17333 56.4664 9.24C56.0797 9.29333 55.7864 9.35333 55.5864 9.42V16.64ZM55.5864 22.2H54.2864V8.52C54.6731 8.38667 55.1664 8.26 55.7664 8.14C56.3664 8.02 57.1264 7.96 58.0464 7.96C58.8064 7.96 59.4931 8.08667 60.1064 8.34C60.7331 8.58 61.2664 8.93333 61.7064 9.4C62.1597 9.86667 62.5064 10.4333 62.7464 11.1C62.9997 11.7667 63.1264 12.52 63.1264 13.36C63.1264 14.1467 63.0197 14.8733 62.8064 15.54C62.6064 16.1933 62.3064 16.76 61.9064 17.24C61.5064 17.7067 61.0131 18.0733 60.4264 18.34C59.8531 18.6067 59.1931 18.74 58.4464 18.74C57.7664 18.74 57.1731 18.6467 56.6664 18.46C56.1731 18.26 55.8131 18.0733 55.5864 17.9V22.2ZM68.5666 18.68C68.1266 18.6667 67.7399 18.6067 67.4066 18.5C67.0866 18.4067 66.8132 18.26 66.5866 18.06C66.3732 17.8467 66.2066 17.58 66.0866 17.26C65.9799 16.9267 65.9266 16.5133 65.9266 16.02V3.22L67.2266 2.98V15.98C67.2266 16.3 67.2532 16.56 67.3066 16.76C67.3732 16.9467 67.4666 17.1 67.5866 17.22C67.7066 17.3267 67.8599 17.4067 68.0466 17.46C68.2466 17.5133 68.4799 17.56 68.7466 17.6L68.5666 18.68ZM70.4242 13.32C70.4242 12.4133 70.5509 11.6267 70.8042 10.96C71.0709 10.28 71.4109 9.71333 71.8242 9.26C72.2509 8.80667 72.7309 8.47333 73.2642 8.26C73.8109 8.03333 74.3709 7.92 74.9442 7.92C76.2109 7.92 77.2176 8.33333 77.9642 9.16C78.7242 9.98667 79.1042 11.26 79.1042 12.98C79.1042 13.0867 79.0976 13.1933 79.0842 13.3C79.0842 13.4067 79.0776 13.5067 79.0642 13.6H71.8042C71.8442 14.8667 72.1576 15.84 72.7442 16.52C73.3309 17.2 74.2642 17.54 75.5442 17.54C76.2509 17.54 76.8109 17.4733 77.2242 17.34C77.6376 17.2067 77.9376 17.0933 78.1242 17L78.3642 18.12C78.1776 18.2267 77.8242 18.3533 77.3042 18.5C76.7976 18.6467 76.1976 18.72 75.5042 18.72C74.5976 18.72 73.8242 18.5867 73.1842 18.32C72.5442 18.0533 72.0176 17.68 71.6042 17.2C71.1909 16.72 70.8909 16.1533 70.7042 15.5C70.5176 14.8333 70.4242 14.1067 70.4242 13.32ZM77.7642 12.5C77.7376 11.42 77.4842 10.58 77.0042 9.98C76.5242 9.38 75.8442 9.08 74.9642 9.08C74.4976 9.08 74.0776 9.17333 73.7042 9.36C73.3442 9.54667 73.0242 9.8 72.7442 10.12C72.4776 10.4267 72.2642 10.7867 72.1042 11.2C71.9576 11.6133 71.8709 12.0467 71.8442 12.5H77.7642Z" fill="#333333"/>
<rect x="86.5" y="3" width="31" height="16" rx="8" stroke="#333333"/>
<circle cx="131.5" cy="11" r="8" stroke="#333333"/>
</svg>
