<svg width="225" height="21" viewBox="0 0 225 21" fill="none" xmlns="http://www.w3.org/2000/svg">
<path d="M13.5517 20.1446L11.0434 20.8057L5.57754 12.5613L2.50765 12.4835L2.6574 20.4557L0.186523 20.6502V0.505728L4.97854 0.350169C7.14992 0.272391 8.83461 0.777951 9.99518 1.78906C11.1557 2.83906 11.7547 4.23906 11.7547 5.91129C11.7547 7.03906 11.3804 8.12795 10.6691 9.21684C9.95774 10.3446 8.94692 11.2002 7.59917 11.7446V11.8224L13.5517 20.1446ZM2.61997 1.94462L2.47022 11.1224L6.21398 10.9668C7.56173 10.578 9.17155 8.94461 9.17155 6.5335C9.17155 3.85017 7.48686 2.10018 4.67904 2.0224L2.61997 1.94462ZM25.1948 20.8057C19.8038 20.8057 15.5734 16.6446 15.5734 10.4224C15.5734 4.70572 20.3654 0.0390625 25.7564 0.0390625C31.1849 0.0390625 35.4153 4.23906 35.4153 10.4613C35.3779 16.2168 30.3612 20.8057 25.1948 20.8057ZM25.5692 19.1335C29.7997 19.1335 32.7572 15.8668 32.7572 10.6557C32.7572 5.44461 29.313 1.71128 25.382 1.71128C21.189 1.71128 18.194 4.93906 18.194 10.2279C18.194 15.3224 21.7131 19.1335 25.5692 19.1335ZM46.0102 20.4557L43.5393 20.6502V11.0835L36.2389 0.700172L38.897 0.350169L45.0368 9.64461L51.3637 0.350169L53.4977 0.700172L45.9727 11.2002L46.0102 20.4557ZM70.2697 20.4168L67.6865 20.6891L65.7772 15.3613L56.4552 15.5557L54.5459 20.6502L52.412 20.4168L60.7606 0.350169L61.8837 0.0779478L70.2697 20.4168ZM61.0226 3.81128L57.1666 13.7668L65.1782 13.9224L61.0226 3.81128ZM78.8429 20.4557L73.714 20.6113V0.544613L76.1849 0.350169L76.0725 8.86683L76.1474 18.9002L84.3837 18.5891L84.1965 20.4946L78.8429 20.4557ZM135.786 20.4557L133.315 20.6502V2.0224L125.827 2.29461L126.014 0.350169H134.325L143.048 0.155724L142.861 2.21684L135.823 1.94462L135.673 9.3335L135.786 20.4557ZM159.633 20.4168L157.05 20.6891L155.141 15.3613L145.819 15.5557L143.909 20.6502L141.776 20.4168L150.124 0.350169L151.247 0.0779478L159.633 20.4168ZM150.386 3.81128L146.53 13.7668L154.542 13.9224L150.386 3.81128ZM168.206 20.4557L163.078 20.6113V0.544613L165.548 0.350169L165.436 8.82795L165.511 18.8613L173.747 18.5502L173.56 20.4557H168.206ZM180.523 20.4557L177.266 20.6113V0.505728L181.909 0.350169H187.674L187.487 2.29461L179.737 1.98351L179.55 9.60573L186.289 9.41129L185.877 11.3168L179.513 11.1224L179.7 18.8613L188.31 18.5891L188.123 20.4946H180.523V20.4557ZM194.413 20.4557L192.204 20.6502L192.391 0.544613L194.188 0.350169L206.131 15.9057L205.906 0.544613L208.115 0.350169L207.853 20.4557L207.029 20.6113L194.151 4.35573L194.413 20.4557ZM217.849 20.6502C216.726 20.6502 215.603 20.4168 214.517 19.9502C213.431 19.4835 212.607 18.9002 212.008 18.3168L213.206 16.9557C214.704 18.1224 216.314 19.0168 218.485 19.0168C220.881 19.0168 222.528 17.8891 222.528 15.6724C222.528 14.5057 222.117 13.6113 221.368 13.0668C220.619 12.5224 219.571 11.9779 218.298 11.4335C215.64 10.3446 212.795 9.21684 212.795 5.5224C212.795 2.56684 215.378 0.194616 218.897 0.194616C220.731 0.194616 222.641 0.739062 223.764 1.59462L223.315 3.34462C222.192 2.80017 220.02 1.98351 218.373 1.98351C216.538 1.98351 215.003 2.87795 215.003 4.82239C215.003 6.06684 215.415 6.96128 216.164 7.50572C216.913 8.08906 217.961 8.63351 219.197 9.17795C221.817 10.3446 224.737 11.2779 224.737 14.8946C224.775 18.7057 221.443 20.6502 217.849 20.6502Z" fill="#333333"/>
<path d="M95.2783 0.078125V20.5726H115.008V0.078125H95.2783ZM105.124 19.717C100.108 19.717 96.0645 15.517 96.0645 10.3059C96.0645 5.09479 100.108 0.894794 105.124 0.894794C110.141 0.894794 114.184 5.09479 114.184 10.3059C114.184 15.517 110.141 19.717 105.124 19.717ZM97.1876 11.9781C97.3748 12.9115 98.2733 15.167 99.8083 14.6226C100.931 14.1948 101.006 13.1059 101.231 11.8615C101.418 10.6948 101.718 8.47813 102.092 8.01146C102.129 7.97257 102.092 7.93368 102.055 7.93368C101.156 7.97257 100.557 10.0726 100.22 11.0448C99.5836 12.9503 97.6369 13.1059 97.2999 11.9392C97.2999 11.9392 97.1876 11.9392 97.1876 11.9781ZM112.911 8.67257C112.687 8.16701 112.537 7.97257 112.312 7.5059C112.5 6.96145 112.724 6.22258 112.687 5.91146C112.537 4.58924 110.815 5.98923 111.189 7.70034C111.302 8.16701 111.414 8.51702 111.489 8.82813C110.965 9.91702 110.74 9.72257 110.777 9.33368C110.815 9.06146 110.852 8.51701 110.852 8.51701C111.002 7.46701 110.478 7.38924 110.141 7.62257C109.954 7.73924 109.692 8.12813 109.579 8.36146L109.692 7.85591L108.756 8.2448L108.456 9.83923C108.082 10.7337 107.67 10.8892 107.408 10.8503C107.333 10.8115 107.258 10.7726 107.183 10.7337C108.045 9.95591 108.344 9.2948 108.269 8.82813C108.194 8.32258 107.82 8.32257 107.558 8.40035C106.884 8.63368 106.322 9.33368 106.173 10.3059C106.135 10.617 106.135 10.9281 106.21 11.1615C105.611 12.1337 105.574 11.5892 105.649 11.2003C105.836 10.3059 106.435 6.61146 106.435 6.61146L105.499 7.00035C105.499 7.00035 104.937 10.2281 104.713 11.4726C104.263 12.6003 104.151 12.1726 104.226 11.7837C104.376 10.8892 104.6 9.72257 104.6 9.72257L103.702 10.0726C103.702 10.0726 103.627 10.3448 103.552 10.8115C103.44 10.4615 103.215 10.2281 102.916 10.1892C102.354 10.1115 101.755 10.8892 101.568 11.8226C101.381 12.7948 101.68 13.6504 102.242 13.6892C102.654 13.7281 103.065 13.3781 103.327 12.8337C103.477 13.1837 103.852 13.1448 104.076 12.9892C104.301 12.8337 104.525 12.4448 104.675 12.1337C104.75 12.6004 105.124 12.6003 105.386 12.4448C105.798 12.2115 106.173 11.667 106.36 11.4337C106.51 11.7059 106.772 11.8615 107.071 11.8226C107.483 11.7837 107.97 11.2392 108.344 10.617L108.194 11.3559L109.13 10.967L109.467 9.17813C109.916 8.05035 110.066 8.43924 110.029 8.78924C110.029 8.78924 109.991 9.10035 109.916 9.60591C109.804 10.6559 110.253 10.6948 110.59 10.5003C111.077 10.1892 111.376 9.6059 111.639 9.06145C111.826 9.52812 112.05 9.91702 112.238 10.5003C113.585 14.4281 108.494 14.0392 106.472 14.117C104.6 14.1948 104.413 15.867 104.226 17.1504C111.189 17.2281 114.334 11.9003 112.911 8.67257ZM103.402 11.667C103.365 12.1337 103.065 12.6392 102.803 12.6392C102.541 12.6392 102.354 12.2504 102.429 11.7059C102.504 11.2392 102.728 10.8115 102.99 10.8115C103.253 10.8115 103.44 11.2003 103.402 11.667ZM107.071 10.4226C107.034 10.3059 107.034 10.1892 107.034 10.0337C107.071 9.56701 107.296 9.06146 107.595 8.98368C107.708 8.9448 107.82 8.98368 107.82 9.17813C107.82 9.60591 107.408 10.1115 107.071 10.4226ZM112.163 7.1559C112.125 7.11701 112.125 7.07813 112.125 7.03924C111.564 5.63924 112.312 5.44479 112.387 6.02813C112.387 6.33924 112.312 6.76701 112.163 7.1559ZM106.098 3.15035C105.985 4.0448 105.911 5.91146 104.226 6.18368C101.456 6.65035 97.7492 7.89479 97.1502 10.6948C97.1502 10.7337 97.0379 10.7337 97.0379 10.7337C96.963 6.33924 100.744 3.15035 106.098 3.15035Z" fill="#FF0000"/>
</svg>
