<svg width="197" height="55" viewBox="0 0 197 55" fill="none" xmlns="http://www.w3.org/2000/svg">
<path d="M62.5743 48.9006V29.5339H60.1159V37.8673H51.6918V29.5339H49.2334V48.9006H51.6918V40.1339H60.1487V48.9006H62.5743ZM77.1936 39.0339C77.1936 36.0006 75.8825 34.4339 71.8835 34.4339C70.3757 34.4339 68.6056 34.6673 67.3272 35.0673L67.5567 37.0339C68.6712 36.8006 70.4084 36.5673 71.7196 36.5673C73.9813 36.5673 74.7352 37.2006 74.7352 38.9673V41.1673H71.064C68.245 41.1673 66.8028 42.2339 66.8028 45.1673C66.8028 47.6672 67.9173 49.2339 70.5068 49.2339C72.1785 49.2339 73.7846 48.7673 75.0302 47.9006L75.1941 48.9672H77.2264L77.1936 39.0339ZM74.768 45.9672C73.6863 46.6672 72.3752 47.1339 71.1623 47.1339C69.4579 47.1339 69.1956 46.5339 69.1956 45.1006C69.1956 43.6672 69.7529 43.2006 71.2279 43.2006H74.768V45.9672ZM92.2063 48.9006V38.0339C92.2063 35.8673 91.4196 34.4339 89.1906 34.4339C87.5845 34.4339 85.3555 35.1339 83.8149 35.9339V28.6339L81.4221 28.9673V48.9339H83.8149V38.2672C85.3228 37.5006 87.4534 36.8006 88.4695 36.8006C89.3545 36.8006 89.8134 37.1672 89.8134 38.1006V48.9339H92.2063V48.9006ZM107.448 48.9006V38.0339C107.448 35.8673 106.662 34.4339 104.433 34.4339C102.794 34.4339 100.368 35.1673 98.8276 35.9673L98.5981 34.7673H96.6314V48.9339H99.0243V38.2339C100.532 37.4673 102.663 36.8006 103.679 36.8006C104.564 36.8006 105.023 37.1672 105.023 38.1006V48.9339H107.448V48.9006ZM113.578 43.9672V42.8006H121.871V39.8339C121.871 36.9006 120.757 34.4673 116.626 34.4673C112.496 34.4673 111.185 36.8339 111.185 39.7672V44.0006C111.185 47.2006 112.595 49.2006 116.692 49.2006C118.429 49.2006 120.298 48.9006 121.609 48.4006L121.314 46.4339C119.773 46.8339 118.298 47.1006 116.921 47.1006C114.201 47.1006 113.578 46.2006 113.578 43.9672ZM113.578 39.5673C113.578 37.5673 114.365 36.5006 116.626 36.5006C118.888 36.5006 119.544 37.6339 119.544 39.5673V40.7339H113.578V39.5673ZM144.882 48.9006V38.0339C144.882 35.8673 144.095 34.4339 141.866 34.4339C140.129 34.4339 137.769 35.1339 136.097 35.9673C135.704 35.0006 134.884 34.4339 133.442 34.4339C131.803 34.4339 129.377 35.1673 127.837 35.9673L127.607 34.7673H125.641V48.9339H128.033V38.2339C129.541 37.4673 131.672 36.8006 132.688 36.8006C133.573 36.8006 134.032 37.1672 134.032 38.1006V48.9339H136.425V38.2339C137.933 37.4673 139.932 36.8006 141.079 36.8006C141.964 36.8006 142.423 37.1672 142.423 38.1006V48.9339H144.882V48.9006ZM149.176 34.7673V45.6339C149.176 47.8006 149.962 49.2339 152.191 49.2339C153.83 49.2339 156.256 48.5006 157.796 47.7006L158.026 48.9006H159.993V34.7339H157.6V45.4339C156.092 46.2006 153.961 46.8673 152.945 46.8673C152.06 46.8673 151.601 46.5006 151.601 45.5673V34.7339L149.176 34.7673ZM151.11 32.6006H153.339V30.1673H151.11V32.6006ZM156.059 32.6006H158.288V30.1673H156.059V32.6006ZM175.366 48.9006V38.0339C175.366 35.8673 174.579 34.4339 172.35 34.4339C170.744 34.4339 168.515 35.1339 166.974 35.9339V28.6339L164.582 28.9673V48.9339H166.974V38.2672C168.482 37.5006 170.613 36.8006 171.629 36.8006C172.514 36.8006 172.973 37.1672 172.973 38.1006V48.9339H175.366V48.9006ZM182.217 48.9006V28.6006L179.824 28.9339V48.9006H182.217ZM188.445 43.9672V42.8006H196.738V39.8339C196.738 36.9006 195.623 34.4673 191.493 34.4673C187.363 34.4673 186.052 36.8339 186.052 39.7672V44.0006C186.052 47.2006 187.461 49.2006 191.559 49.2006C193.296 49.2006 195.164 48.9006 196.475 48.4006L196.18 46.4339C194.64 46.8339 193.165 47.1006 191.788 47.1006C189.067 47.1006 188.445 46.2006 188.445 43.9672ZM188.445 39.5673C188.445 37.5673 189.231 36.5006 191.493 36.5006C193.755 36.5006 194.41 37.6339 194.41 39.5673V40.7339H188.445V39.5673Z" fill="#6F7072"/>
<path d="M38.5478 22.0331C38.3183 19.4331 37.2038 17.1331 35.3682 15.6331C33.7293 14.2665 31.6314 13.5998 29.5992 13.8665C27.108 14.1331 25.0757 16.0665 23.7973 17.6331C22.3551 19.3665 21.3717 21.2665 20.8473 22.6331C19.5689 21.4998 18.7494 20.1665 18.3561 18.5331C18.0283 17.1331 17.6677 14.3665 17.4055 12.3665C17.2088 11.0331 17.1105 9.96648 17.0121 9.59981C16.7499 8.36648 15.9304 6.26647 15.406 5.16647C16.5532 4.93314 17.4383 4.63314 18.2905 3.79981C19.1428 2.93314 20.5195 1.59981 20.5522 1.59981L21.3717 0.799806L20.2245 0.69981C19.995 0.666477 14.1604 0.233142 13.177 0.266476C12.4887 0.299809 11.6364 0.666475 10.9481 1.33314C10.3908 1.83314 9.66972 2.69981 9.14526 4.09981C8.6208 4.19981 3.86789 5.13314 3.86789 5.13314V6.16647L4.26123 6.26648C5.73627 6.59981 7.60466 7.39981 8.71913 8.23314L8.65358 8.26648C7.703 8.89981 6.42463 9.76648 5.34293 10.7665C3.96622 12.0331 3.31065 13.1665 3.40899 14.1665C3.47454 14.8665 3.76955 15.3998 4.26123 15.7665C4.65458 16.0331 5.14626 16.1665 5.70349 16.1665C5.04792 17.3331 4.68735 18.2331 4.42512 19.0998C4.09734 20.2998 3.96622 21.4998 4.13012 22.9998C4.32679 25.2998 5.47404 27.5998 6.78519 29.5998H0V45.5665C0 46.9998 0.295009 48.3665 0.917805 49.5665C1.47504 50.6998 2.26173 51.6665 3.24509 52.4998C5.01514 53.9665 7.37521 54.8331 9.57138 54.8331C11.7676 54.8331 14.1276 53.9665 15.8977 52.4998C16.881 51.6998 17.6677 50.6998 18.225 49.5665C18.7822 48.4665 19.0772 47.2665 19.1428 45.9998C19.2739 43.8665 19.995 40.6998 21.1095 38.2331C22.3551 35.4331 24.0268 33.9665 26.1574 33.7665C27.3047 33.6665 28.4519 33.8331 29.4353 34.2998C30.2547 34.6665 31.0414 35.2331 31.6642 35.9331C32.8115 37.1665 33.3687 38.5665 33.4343 38.8665V38.8331L33.8276 40.1331L34.3849 38.9998C35.2699 37.1331 36.5155 34.1998 37.4333 30.7665C38.4494 27.4998 38.7772 24.5331 38.5478 22.0331ZM7.57188 30.5665L7.80133 30.8665C8.52246 31.8331 9.27637 32.6665 9.89917 33.3331L11.3087 34.8665C13.5704 37.2665 15.3404 39.1665 16.1599 40.5665C17.2088 42.3665 17.9627 44.1331 18.225 45.4665C18.2577 45.5998 18.2905 45.8665 18.2905 45.9665C18.1594 48.8331 16.6844 50.6331 15.406 51.6998C13.7998 53.0331 11.6692 53.8331 9.70249 53.8331C7.70299 53.8331 5.60516 53.0665 3.999 51.6998C2.68785 50.5998 1.11448 48.6331 1.11448 45.5665V30.6331L7.57188 30.5665ZM9.27637 9.06647L9.50582 8.89981C9.66972 9.13314 9.76805 9.33314 9.76805 9.56647C9.83361 10.3665 9.11248 11.2331 8.22745 12.3665C7.63744 13.0998 6.98186 13.9665 6.32629 14.9665C5.7035 15.1331 5.17903 15.0665 4.81847 14.7998C4.58902 14.5998 4.42513 14.3331 4.39235 13.9665C4.32679 13.2998 4.88403 12.4331 5.9985 11.3998C7.0802 10.5331 8.35857 9.69981 9.27637 9.06647ZM36.6138 30.5331C35.8927 33.2665 34.9421 35.7331 34.0898 37.4998C33.7621 36.8331 33.2704 36.0665 32.582 35.3331C31.402 33.9998 29.3042 32.4998 26.1574 32.7665C24.8135 32.8998 23.6007 33.4665 22.5517 34.3998C21.6995 35.1998 20.9456 36.3665 20.29 37.7998C19.5361 39.5331 19.0116 41.4998 18.6183 43.3331C18.225 42.2998 17.7005 41.1998 17.0121 40.0331C16.1271 38.5331 14.3243 36.5998 12.0298 34.1665L10.6203 32.6331C9.11248 30.9998 7.83411 29.3331 6.91631 27.7331C5.90017 25.9665 5.31015 24.2998 5.17904 22.8665C5.04792 21.4998 5.14626 20.4331 5.44126 19.3331C5.70349 18.3331 6.19517 17.2998 7.0802 15.7998C7.70299 14.6998 8.39135 13.8331 9.04692 13.0665C10.0958 11.7665 10.8825 10.7331 10.7842 9.53314C10.6859 8.53314 9.86639 7.59981 8.26023 6.73314C7.57188 6.36647 6.78519 6.03314 6.06406 5.76648C7.60466 5.46648 9.60416 5.06647 9.60416 5.06647L9.89917 4.99981L9.9975 4.73314C10.7186 2.36647 12.3248 1.29981 13.2098 1.26648C13.8326 1.23314 16.8155 1.46648 18.9789 1.59981C18.52 2.03314 17.9627 2.59981 17.5366 3.03314C16.8483 3.73314 16.0616 3.93314 14.9143 4.19981L13.7998 4.46647L14.226 5.09981C14.4554 5.43314 15.6354 8.23314 15.996 9.79981C16.0943 10.1331 16.2255 11.2331 16.3566 12.4665C16.6188 14.5998 16.9794 17.2998 17.3399 18.7665C17.8316 20.8665 18.8805 22.4998 20.6834 23.8665L21.2734 24.2998L21.3717 23.9331C21.8634 22.2998 23.2073 19.8998 24.5185 18.2998C25.6657 16.8665 27.5341 15.1331 29.6647 14.8665C31.402 14.6331 33.2376 15.2331 34.6799 16.4331C36.286 17.7665 37.3022 19.7998 37.4988 22.1331C37.7611 24.4998 37.4333 27.3331 36.6138 30.5331ZM13.2754 5.89981C13.2098 5.09981 12.4887 4.46647 11.6692 4.56647C10.8825 4.63314 10.2597 5.36648 10.3581 6.19981C10.4236 6.99981 11.1448 7.63314 11.9642 7.53314C12.7509 7.43314 13.3409 6.69981 13.2754 5.89981ZM12.2592 5.99981C12.292 6.23314 12.0953 6.46648 11.8659 6.49981C11.6364 6.53314 11.407 6.33314 11.3742 6.09981C11.3414 5.86648 11.5381 5.63314 11.7676 5.59981C12.0298 5.53314 12.2265 5.69981 12.2592 5.99981ZM8.42413 47.4331V47.6665C8.42413 47.9998 8.39135 48.1665 7.76855 48.1665C7.47354 48.1665 7.0802 48.1331 6.75241 48.0331L6.65408 48.7331C6.94909 48.8331 7.34243 48.8998 7.80133 48.8998C8.98137 48.8998 9.24359 48.4665 9.24359 47.7331V47.3331C9.24359 46.7331 9.01414 46.3331 8.22745 46.2998C7.998 46.2998 7.86689 46.2665 7.63744 46.2665V45.1665H9.17804V44.4665H6.78519V46.9331C7.11298 46.9331 7.37521 46.9331 7.83411 46.9665C8.35857 46.9998 8.42413 47.0998 8.42413 47.4331ZM3.5401 48.7998H6.09684V48.0998H5.21181V44.4665H4.49068L3.40899 44.7998L3.60566 45.4998L4.42512 45.2665V48.0998H3.57288V48.7998H3.5401ZM9.89917 47.4665V47.7331C9.89917 48.4998 10.2597 48.8665 11.3087 48.8665C12.3576 48.8665 12.7181 48.5665 12.7181 47.7331V47.4665C12.7181 47.0998 12.587 46.8331 12.0953 46.5998C12.5215 46.3665 12.6198 46.0998 12.6198 45.7665V45.4665C12.6198 44.7998 12.292 44.3998 11.3414 44.3998C10.3908 44.3998 10.0631 44.7998 10.0631 45.4665V45.7665C10.0631 46.0998 10.1942 46.3665 10.5875 46.5998C10.0303 46.8331 9.89917 47.0998 9.89917 47.4665ZM11.8331 45.7665C11.8331 45.9998 11.7676 46.0998 11.3087 46.2998C10.8498 46.0998 10.7842 46.0331 10.7842 45.7665V45.4998C10.7842 45.2331 10.8825 45.0998 11.3087 45.0998C11.7348 45.0998 11.8331 45.2665 11.8331 45.4998V45.7665ZM10.6859 47.5331C10.6859 47.2665 10.7514 47.1331 11.3087 46.8998C11.8659 47.1331 11.9314 47.2331 11.9314 47.5331V47.7331C11.9314 48.0665 11.7676 48.1665 11.3087 48.1665C10.8498 48.1665 10.6859 48.0331 10.6859 47.7331V47.5331ZM14.6849 44.4665L13.1443 47.0665V47.7998H15.0126V48.7665H15.7993V47.7998H16.3238V47.0998H15.7993V44.4331H14.6849V44.4665ZM13.9637 47.1331L15.0126 45.2331V47.1331H13.9637Z" fill="#E1001A"/>
</svg>
