<svg width="209" height="26" viewBox="0 0 209 26" fill="none" xmlns="http://www.w3.org/2000/svg">
<path fill-rule="evenodd" clip-rule="evenodd" d="M126.093 25.9242H123.835V0.0757862H126.093V25.9242ZM179.735 0.0757862V21.7426L159.572 0.0757862V0H157.239V25.9242H159.572V4.02889L179.735 25.9242V25.8473V25.9242H182.066V0.0757862H179.735ZM152.123 0.0757862V0.151572L128.198 25.8473H131.658L152.123 3.26881V18.2442H142.042V20.6014H152.123V25.8473H154.378V0.0757862H152.123Z" fill="black"/>
<path fill-rule="evenodd" clip-rule="evenodd" d="M114.205 14.1384H114.356C118.118 14.1384 121.201 10.7181 121.201 6.91764C121.201 3.2688 118.342 0.227357 114.805 0.0757862V0H114.43H95.9238V25.9242H98.2563V2.35715H114.656C115.763 2.50307 116.779 3.04688 117.513 3.88664C118.247 4.7264 118.649 5.80446 118.644 6.91876C118.644 9.35169 116.763 11.7077 114.28 11.8604H111.121V14.4449H111.195L117.891 25.8484H121.578L114.205 14.1384ZM81.027 0L68.4639 0.0757862V25.9231H87.3466C90.9571 25.6946 93.7409 22.6531 93.7409 19.0032C93.7409 16.4956 92.4618 14.3669 90.5058 13.1499C92.4607 11.9351 93.7409 9.42636 93.7409 6.91764C93.7409 3.2688 90.9571 0.303142 87.4214 0.0757862V0H81.027ZM81.027 23.5659H70.7953V2.35715H87.2706C88.3778 2.5031 89.3936 3.04694 90.1276 3.88673C90.8616 4.72652 91.2634 5.80456 91.2576 6.91876C91.2576 9.42748 89.2267 11.7835 86.7433 11.8604V14.4427C89.2255 14.4427 91.2576 16.4956 91.2576 19.0032C91.2576 21.3603 89.4523 23.2605 87.1957 23.5659H81.027Z" fill="black"/>
<path fill-rule="evenodd" clip-rule="evenodd" d="M0 0V25.8472H2.33255L22.796 3.87731V18.2442H12.8648V20.6013H22.796V25.8472H25.0537V0H0ZM2.33255 22.3499V13.5321H10.6082L2.33255 22.3499ZM2.33255 11.175V2.35603H21.1404L12.8648 11.175H2.33255Z" fill="#00ACEC"/>
<path fill-rule="evenodd" clip-rule="evenodd" d="M196.21 0C189.139 0 183.346 5.77752 183.346 12.9247C183.346 20.0686 189.139 25.9242 196.21 25.9242C203.282 25.9242 209 20.0686 209 12.9247C209 5.77752 203.282 0 196.21 0ZM196.21 23.1859C190.643 23.1859 186.204 18.6254 186.204 13.0763C186.204 7.45037 190.643 2.96566 196.21 2.96566C201.702 2.96566 206.217 7.45037 206.217 13.0763C206.217 18.6254 201.702 23.1859 196.21 23.1859Z" fill="black"/>
<path fill-rule="evenodd" clip-rule="evenodd" d="M58.7581 2.5091V0.151958H33.5547V25.9246H35.8124V14.063H50.6601L39.7234 25.8477H43.1843L63.5729 3.26919V18.2446H53.5668V20.6017H63.5729L63.7226 26.0003H66.0551L65.9054 0.0761719H63.5729V0.151958L52.8474 11.707H35.8124V2.5091H58.7581Z" fill="black"/>
</svg>
